<?xml version="1.0" encoding="UTF-8"?>
<svg id="Layer_2" data-name="Layer 2" xmlns="http://www.w3.org/2000/svg" viewBox="0 0 468.34 94.77">
  <defs>
    <style>
      .cls-1 {
        font-family: GoodTimingRg-Bold, 'Good Timing';
        font-size: 86px;
        font-weight: 700;
      }

      .cls-1, .cls-2 {
        fill: #fff;
      }

      .cls-2 {
        stroke-width: 0px;
      }
    </style>
  </defs>
  <g id="Layer_1-2" data-name="Layer 1">
    <g>
      <path class="cls-2" d="m96.23,70.95c-2.1,0-3.72-1.05-4.85-3.15l-19.92-39.32h14.47l12.77,26.3,12.68-26.3h14.55l-20.09,39.32c-1.08,2.1-2.64,3.15-4.68,3.15h-4.94Z"/>
      <path class="cls-2" d="m147.55,70.95c-3.29,0-6.33-.51-9.11-1.53-2.78-1.02-5.19-2.47-7.23-4.34-2.04-1.87-3.63-4.11-4.77-6.72-1.14-2.61-1.7-5.5-1.7-8.68s.57-5.99,1.7-8.6c1.13-2.61,2.72-4.85,4.77-6.72,2.04-1.87,4.45-3.32,7.23-4.34,2.78-1.02,5.82-1.53,9.11-1.53h5.96c3.29,0,6.33.51,9.11,1.53,2.78,1.02,5.19,2.47,7.23,4.34s3.63,4.11,4.77,6.72c1.13,2.61,1.7,5.48,1.7,8.6s-.57,6.07-1.7,8.68c-1.14,2.61-2.72,4.85-4.77,6.72s-4.46,3.32-7.23,4.34c-2.78,1.02-5.82,1.53-9.11,1.53h-5.96Zm5.96-12.94c2.5,0,4.55-.77,6.17-2.3,1.62-1.53,2.43-3.55,2.43-6.04s-.81-4.5-2.43-6c-1.62-1.5-3.67-2.26-6.17-2.26h-6.04c-2.55,0-4.62.75-6.21,2.26-1.59,1.5-2.38,3.5-2.38,6s.79,4.51,2.38,6.04c1.59,1.53,3.66,2.3,6.21,2.3h6.04Z"/>
      <path class="cls-2" d="m168.62,70.89c3.21-3.87,6.42-7.74,9.63-11.6h29.96c1.99,0,2.98-.91,2.98-2.72s-.99-2.64-2.98-2.64h-16.68c-2.16,0-4.09-.33-5.79-.98-1.7-.65-3.15-1.55-4.34-2.68-1.19-1.13-2.1-2.48-2.72-4.04-.62-1.56-.94-3.25-.94-5.06,0-1.93.34-3.67,1.02-5.23.68-1.56,1.65-2.89,2.89-4,1.25-1.11,2.69-1.96,4.34-2.55,1.65-.6,3.46-.89,5.45-.89h39.49c-2.75,3.89-5.5,7.77-8.26,11.66h-28.6c-1.93,0-2.89.88-2.89,2.64s.96,2.64,2.89,2.64h17.02c4.37,0,7.75,1.19,10.13,3.57,2.38,2.38,3.57,5.42,3.57,9.11,0,1.99-.34,3.76-1.02,5.32-.68,1.56-1.63,2.91-2.85,4.04-1.22,1.14-2.67,2-4.34,2.6-1.67.6-3.5.89-5.49.89-14.16-.02-28.32-.04-42.48-.06Z"/>
      <path class="cls-2" d="m240.15,24.31c-1.87,0-3.42-.55-4.64-1.66-1.22-1.11-1.83-2.62-1.83-4.55,0-1.81.61-3.28,1.83-4.38,1.22-1.11,2.77-1.66,4.64-1.66h1.96c1.87,0,3.4.55,4.6,1.66s1.79,2.57,1.79,4.38c0,1.93-.6,3.45-1.79,4.55-1.19,1.11-2.72,1.66-4.6,1.66h-1.96Zm-6.21,46.64V28.48h14.21v42.47h-14.21Z"/>
      <path class="cls-2" d="m268.63,70.95c-.71.09-6.91.74-11.62-4.04-4.64-4.72-3.97-10.8-3.87-11.53V16.4h14.13v12.09h25.62l-8.6,11.75h-17.02v14.04c0,3.35,1.67,5.02,5.02,5.02h11.58c3.05,3.94,6.09,7.88,9.14,11.83-8.12-.06-16.25-.11-24.37-.17Z"/>
      <path class="cls-2" d="m301.55,70.71c-1.11-.4-3.03-1.28-4.74-3.15-.3-.32-1.53-1.71-2.37-3.93-.18-.46-.91-2.47-.84-5.2.04-1.62.17-5.8,3.32-9.11,2.21-2.33,5.56-3.49,10.04-3.49h15.83v8.26h-12.6c-2.1,0-3.15.99-3.15,2.98s.99,2.98,2.98,2.98h16.94v-12.26c0-4.82-2.47-7.23-7.4-7.23h-23.66v-12.09h23.83c7.09,0,12.4,1.74,15.92,5.23,3.52,3.49,5.28,8.5,5.28,15.02v22.21l-39.37-.24Z"/>
      <path class="cls-2" d="m369.36,70.95c-3.29,0-6.33-.51-9.11-1.53-2.78-1.02-5.19-2.47-7.23-4.34-2.04-1.87-3.63-4.11-4.77-6.72-1.14-2.61-1.7-5.5-1.7-8.68s.57-5.99,1.7-8.6c1.13-2.61,2.72-4.85,4.77-6.72,2.04-1.87,4.45-3.32,7.23-4.34,2.78-1.02,5.82-1.53,9.11-1.53,8.82.06,17.65.13,26.47.19l-7.32,12.75h-19.23c-2.55,0-4.62.75-6.21,2.26-1.59,1.5-2.38,3.5-2.38,6s.79,4.51,2.38,6.04c1.59,1.53,3.66,2.3,6.21,2.3h19.23c2.44,4.31,4.88,8.62,7.32,12.94h-26.47Z"/>
      <path class="cls-2" d="m431.74,70.95v-22.3c0-4.82-2.47-7.23-7.4-7.23h-14.21v29.53h-14.3V11.29h14.3v17.19h14.55c7.03,0,12.34,1.76,15.92,5.28,3.57,3.52,5.36,8.51,5.36,14.98v22.21h-14.21Z"/>
      <path class="cls-2" d="m460,24.31c-1.87,0-3.42-.55-4.64-1.66-1.22-1.11-1.83-2.62-1.83-4.55,0-1.81.61-3.28,1.83-4.38,1.22-1.11,2.77-1.66,4.64-1.66h1.96c1.87,0,3.4.55,4.6,1.66s1.79,2.57,1.79,4.38c0,1.93-.6,3.45-1.79,4.55-1.19,1.11-2.72,1.66-4.6,1.66h-1.96Zm-6.21,46.64V28.48h14.21v42.47h-14.21Z"/>
      <line class="cls-2" x1="445.96" y1="70.95" x2="453.79" y2="70.95"/>
    </g>
    <text class="cls-1" transform="translate(0 70.95)"><tspan x="0" y="0">e</tspan></text>
    <path class="cls-2" d="m59.23,56.12c-1.93-2.96-3.86-5.93-5.8-8.89,6.21.07,12.41.14,18.62.21,1.88,2.93,3.76,5.86,5.64,8.79-6.15-.04-12.31-.07-18.46-.11Z"/>
  </g>
</svg>